PathFileType	4	(X/Y/Z)	 Static_Ext01.trc
DataRate	CameraRate	NumFrames	NumMarkers	Units	OrigDataRate	OrigDataStartFrame	OrigNumFrames
250	250	11	38	m	250	106	423
Frame#	Time	RASI			LASI			RPSI			LPSI			RAIC			LAIC			RLFC			RMFC			RTH1			RTH2			RTH3			RLMAL			RMMAL			RTB1			RTB2			RTB3			RCAL			RMT1			RMT5			LLFC			LMFC			LTH1			LTH2			LTH3			LLMAL			LMMAL			LTB1			LTB2			LTB3			LCAL			LMT1			LMT5			C7			T10			CLAV			STRN			RACR			LACR			
		X1	Y1	Z1	X2	Y2	Z2	X3	Y3	Z3	X4	Y4	Z4	X5	Y5	Z5	X6	Y6	Z6	X7	Y7	Z7	X8	Y8	Z8	X9	Y9	Z9	X10	Y10	Z10	X11	Y11	Z11	X12	Y12	Z12	X13	Y13	Z13	X14	Y14	Z14	X15	Y15	Z15	X16	Y16	Z16	X17	Y17	Z17	X18	Y18	Z18	X19	Y19	Z19	X20	Y20	Z20	X21	Y21	Z21	X22	Y22	Z22	X23	Y23	Z23	X24	Y24	Z24	X25	Y25	Z25	X26	Y26	Z26	X27	Y27	Z27	X28	Y28	Z28	X29	Y29	Z29	X30	Y30	Z30	X31	Y31	Z31	X32	Y32	Z32	X33	Y33	Z33	X34	Y34	Z34	X35	Y35	Z35	X36	Y36	Z36	X37	Y37	Z37	X38	Y38	Z38	
106	0.4240	0.381494	0.983096	0.418055	0.366093	0.980618	0.180311	0.197826	1.049801	0.355495	0.194084	1.054086	0.282967	0.308128	1.077324	0.463468	0.301702	1.077235	0.154443	0.252343	0.503083	0.462310	0.237040	0.494422	0.358822	0.280875	0.868455	0.498467	0.322623	0.773234	0.485692	0.260539	0.691619	0.491280	0.174207	0.095635	0.479887	0.199860	0.102888	0.396295	0.249558	0.369245	0.403186	0.252431	0.307557	0.460628	0.229015	0.234268	0.415510	0.110298	0.040178	0.419929	0.325817	0.046180	0.414662	0.313613	0.041823	0.507730	0.245947	0.517763	0.155692	0.246961	0.502388	0.266537	0.296484	0.864300	0.126484	0.334858	0.768875	0.141142	0.269543	0.686867	0.127198	0.173941	0.099533	0.140867	0.204726	0.102892	0.222196	0.254856	0.369429	0.213633	0.246194	0.301737	0.157692	0.229088	0.234904	0.208443	0.106002	0.041877	0.198602	0.328188	0.044398	0.196517	0.308007	0.045879	0.109891	0.217148	1.520684	0.306825	0.178413	1.224276	0.309448	0.328636	1.444668	0.310049	0.394196	1.238580	0.309770	0.225701	1.503303	0.453638	0.239408	1.513535	0.166102	
107	0.4280	0.381519	0.983129	0.418213	0.366284	0.980638	0.180443	0.197895	1.049787	0.355522	0.194191	1.054058	0.282995	0.308053	1.077358	0.463628	0.301909	1.077235	0.154527	0.252011	0.503111	0.462211	0.237066	0.494392	0.358864	0.280861	0.868466	0.498535	0.322641	0.773270	0.485779	0.260454	0.691644	0.491518	0.174227	0.095624	0.479903	0.199860	0.102929	0.396268	0.249672	0.369231	0.403398	0.252453	0.307591	0.460649	0.229028	0.234281	0.415562	0.110312	0.040175	0.419942	0.326048	0.046064	0.414581	0.313633	0.041824	0.507751	0.246039	0.517736	0.155760	0.247037	0.502360	0.266614	0.296743	0.864294	0.126608	0.335027	0.768841	0.141291	0.269747	0.686836	0.127278	0.174016	0.099502	0.140719	0.204746	0.102906	0.222195	0.254663	0.369417	0.213380	0.246282	0.301732	0.157836	0.229111	0.234920	0.208478	0.106018	0.041894	0.198604	0.328128	0.044328	0.196524	0.307982	0.045879	0.109867	0.217204	1.520679	0.306848	0.178434	1.224271	0.309484	0.328719	1.444659	0.310138	0.394243	1.238596	0.309885	0.225739	1.503369	0.453683	0.239560	1.513552	0.166144	
108	0.4320	0.381568	0.983167	0.418370	0.366478	0.980638	0.180590	0.197967	1.049783	0.355535	0.194296	1.054056	0.283004	0.307961	1.077382	0.463755	0.302078	1.077235	0.154627	0.252022	0.503096	0.462257	0.237080	0.494414	0.358925	0.280863	0.868467	0.498562	0.322655	0.773288	0.485852	0.260473	0.691639	0.491557	0.174230	0.095625	0.479882	0.199861	0.102924	0.396280	0.249759	0.369249	0.403426	0.252448	0.307557	0.460683	0.228990	0.234285	0.415525	0.110293	0.040197	0.419927	0.325846	0.046114	0.414619	0.313616	0.041820	0.507731	0.246149	0.517764	0.155828	0.247095	0.502345	0.266669	0.296957	0.864284	0.126675	0.335231	0.768794	0.141458	0.269930	0.686795	0.127334	0.174013	0.099535	0.140726	0.204743	0.102898	0.222178	0.254979	0.369421	0.213710	0.246320	0.301734	0.157800	0.229138	0.234911	0.208516	0.106012	0.041904	0.198593	0.328219	0.044408	0.196491	0.307990	0.045890	0.109855	0.217259	1.520676	0.306866	0.178478	1.224280	0.309488	0.328795	1.444668	0.310227	0.394305	1.238585	0.310019	0.225724	1.503340	0.453756	0.239730	1.513548	0.166188	
109	0.4360	0.381606	0.983181	0.418505	0.366658	0.980629	0.180722	0.198036	1.049769	0.355550	0.194419	1.054038	0.283041	0.307871	1.077404	0.463888	0.302259	1.077242	0.154728	0.252033	0.503134	0.462311	0.237096	0.494396	0.358975	0.280843	0.868488	0.498671	0.322671	0.773291	0.485971	0.260499	0.691651	0.491643	0.174224	0.095641	0.479896	0.199886	0.102926	0.396272	0.249697	0.369290	0.403306	0.252412	0.307641	0.460754	0.229024	0.234289	0.415591	0.110296	0.040195	0.419917	0.325884	0.046206	0.414594	0.313628	0.041816	0.507741	0.246276	0.517761	0.155814	0.247169	0.502335	0.266733	0.297209	0.864265	0.126791	0.335435	0.768780	0.141612	0.270160	0.686799	0.127445	0.174013	0.099574	0.140766	0.204765	0.102932	0.222240	0.254781	0.369410	0.213472	0.246361	0.301755	0.157798	0.229172	0.234919	0.208531	0.106000	0.041900	0.198592	0.328195	0.044359	0.196499	0.308000	0.045886	0.109859	0.217332	1.520676	0.306903	0.178489	1.224282	0.309515	0.328864	1.444662	0.310355	0.394339	1.238613	0.310144	0.225727	1.503321	0.453780	0.239875	1.513551	0.166216	
110	0.4400	0.381635	0.983222	0.418708	0.366855	0.980633	0.180887	0.198081	1.049747	0.355587	0.194510	1.054006	0.283073	0.307777	1.077436	0.464057	0.302439	1.077249	0.154822	0.252043	0.503122	0.462369	0.237116	0.494406	0.359016	0.280851	0.868499	0.498703	0.322672	0.773327	0.486074	0.260506	0.691671	0.491693	0.174226	0.095636	0.479891	0.199854	0.102934	0.396297	0.249706	0.369348	0.403321	0.252440	0.307591	0.460742	0.229023	0.234295	0.415596	0.110331	0.040193	0.419902	0.325822	0.046081	0.414586	0.313632	0.041816	0.507738	0.246394	0.517766	0.155877	0.247224	0.502328	0.266760	0.297433	0.864255	0.126907	0.335641	0.768790	0.141816	0.270461	0.686770	0.127613	0.174062	0.099535	0.140787	0.204762	0.102888	0.222201	0.254819	0.369415	0.213525	0.246439	0.301760	0.157868	0.229223	0.234894	0.208534	0.106004	0.041926	0.198603	0.328195	0.044386	0.196539	0.308001	0.045862	0.109868	0.217402	1.520687	0.306923	0.178502	1.224289	0.309530	0.328921	1.444682	0.310421	0.394380	1.238635	0.310255	0.225710	1.503316	0.453803	0.240031	1.513556	0.166241	
111	0.4440	0.381667	0.983265	0.418849	0.367028	0.980648	0.181029	0.198149	1.049731	0.355633	0.194596	1.053982	0.283101	0.307703	1.077484	0.464216	0.302620	1.077232	0.154950	0.252043	0.503153	0.462414	0.237137	0.494432	0.359069	0.280823	0.868505	0.498802	0.322685	0.773331	0.486175	0.260528	0.691689	0.491780	0.174221	0.095649	0.479904	0.199862	0.102928	0.396292	0.249758	0.369363	0.403348	0.252432	0.307595	0.460760	0.229036	0.234335	0.415602	0.110322	0.040197	0.419922	0.325817	0.046121	0.414581	0.313623	0.041801	0.507743	0.246483	0.517768	0.155920	0.247293	0.502304	0.266818	0.297677	0.864239	0.127009	0.335860	0.768777	0.141958	0.270547	0.686800	0.127613	0.174066	0.099596	0.140762	0.204775	0.102883	0.222228	0.254902	0.369452	0.213582	0.246492	0.301758	0.157893	0.229237	0.234929	0.208587	0.106001	0.041938	0.198602	0.328189	0.044344	0.196514	0.308010	0.045883	0.109867	0.217435	1.520686	0.306937	0.178520	1.224297	0.309553	0.328989	1.444683	0.310498	0.394417	1.238618	0.310393	0.225686	1.503187	0.453775	0.240200	1.513564	0.166313	
112	0.4480	0.382046	0.983422	0.419209	0.367212	0.980643	0.181194	0.198193	1.049708	0.355666	0.194700	1.053954	0.283129	0.307628	1.077521	0.464354	0.302739	1.077238	0.155038	0.252055	0.503151	0.462458	0.237166	0.494440	0.359113	0.280802	0.868534	0.498874	0.322688	0.773389	0.486303	0.260547	0.691708	0.491846	0.174226	0.095644	0.479903	0.199882	0.102937	0.396279	0.249889	0.369442	0.403274	0.252426	0.307610	0.460788	0.229040	0.234331	0.415647	0.110330	0.040212	0.419921	0.325853	0.046198	0.414594	0.313627	0.041796	0.507747	0.246568	0.517760	0.155984	0.247351	0.502294	0.266890	0.297893	0.864223	0.127108	0.336070	0.768744	0.142101	0.270745	0.686760	0.127671	0.174083	0.099599	0.140743	0.204759	0.102911	0.222216	0.254938	0.369392	0.213602	0.246551	0.301768	0.157907	0.229281	0.234923	0.208600	0.106017	0.041950	0.198600	0.328275	0.044401	0.196519	0.308019	0.045861	0.109892	0.217519	1.520699	0.306989	0.178525	1.224309	0.309572	0.329035	1.444689	0.310568	0.394468	1.238626	0.310535	0.225711	1.503286	0.453883	0.240331	1.513571	0.166330	
113	0.4520	0.381737	0.983346	0.419178	0.367395	0.980674	0.181350	0.198240	1.049667	0.355712	0.194792	1.053928	0.283167	0.307714	1.077517	0.464312	0.302917	1.077282	0.155133	0.252066	0.503157	0.462513	0.237194	0.494455	0.359171	0.280786	0.868578	0.498932	0.322704	0.773389	0.486434	0.260556	0.691730	0.491933	0.174223	0.095645	0.479888	0.199897	0.102971	0.396279	0.249957	0.369463	0.403311	0.252484	0.307643	0.460868	0.229064	0.234347	0.415652	0.110321	0.040215	0.419912	0.325927	0.046108	0.414613	0.313636	0.041792	0.507746	0.246691	0.517747	0.156060	0.247417	0.502306	0.266953	0.298124	0.864222	0.127226	0.336254	0.768731	0.142250	0.270971	0.686748	0.127784	0.174112	0.099593	0.140771	0.204775	0.102928	0.222243	0.255271	0.369399	0.213912	0.246612	0.301787	0.158011	0.229312	0.234922	0.208617	0.106016	0.041970	0.198596	0.328183	0.044347	0.196522	0.308040	0.045862	0.109883	0.217584	1.520709	0.307003	0.178550	1.224321	0.309594	0.329102	1.444693	0.310668	0.394509	1.238640	0.310666	0.225709	1.503293	0.453909	0.240466	1.513570	0.166375	
114	0.4560	0.381747	0.983389	0.419335	0.367579	0.980673	0.181518	0.198286	1.049646	0.355756	0.194879	1.053894	0.283197	0.307628	1.077538	0.464462	0.303097	1.077257	0.155247	0.252041	0.503175	0.462566	0.237232	0.494474	0.359230	0.280750	0.868592	0.499017	0.322701	0.773415	0.486548	0.260546	0.691760	0.492011	0.174239	0.095654	0.479891	0.199926	0.102963	0.396304	0.249433	0.369596	0.403535	0.252439	0.307695	0.460908	0.229063	0.234351	0.415671	0.110334	0.040224	0.419907	0.325849	0.046041	0.414623	0.313625	0.041805	0.507730	0.246776	0.517762	0.156096	0.247496	0.502294	0.267036	0.298332	0.864207	0.127315	0.336472	0.768720	0.142420	0.271167	0.686729	0.127859	0.174131	0.099608	0.140748	0.204795	0.102938	0.222261	0.255319	0.369353	0.213973	0.246648	0.301777	0.157969	0.229331	0.234927	0.208648	0.106035	0.041975	0.198611	0.328198	0.044336	0.196492	0.308009	0.045874	0.109866	0.217633	1.520702	0.307035	0.178530	1.224327	0.309623	0.329187	1.444716	0.310823	0.394556	1.238640	0.310820	0.225724	1.503303	0.453964	0.240612	1.513597	0.166430	
115	0.4600	0.382130	0.983540	0.419700	0.367746	0.980693	0.181643	0.198340	1.049609	0.355790	0.194952	1.053852	0.283243	0.307557	1.077543	0.464624	0.303251	1.077296	0.155358	0.252049	0.503191	0.462639	0.237247	0.494499	0.359253	0.280736	0.868623	0.499077	0.322692	0.773413	0.486712	0.260543	0.691787	0.492082	0.174245	0.095666	0.479897	0.199939	0.102978	0.396312	0.249410	0.369690	0.403459	0.252430	0.307648	0.460859	0.229071	0.234390	0.415714	0.110339	0.040231	0.419903	0.325898	0.046134	0.414590	0.313638	0.041791	0.507762	0.246887	0.517749	0.156187	0.247539	0.502295	0.267060	0.298574	0.864200	0.127447	0.336674	0.768686	0.142573	0.271395	0.686732	0.127930	0.174053	0.099650	0.140905	0.204787	0.102921	0.222197	0.255108	0.369392	0.213704	0.246689	0.301797	0.157999	0.229363	0.234920	0.208664	0.106055	0.042001	0.198605	0.328222	0.044356	0.196497	0.308030	0.045876	0.109866	0.217691	1.520722	0.307077	0.178546	1.224342	0.309644	0.329219	1.444743	0.310858	0.394614	1.238676	0.310957	0.225732	1.503317	0.454016	0.240753	1.513608	0.166485	
116	0.4640	0.382141	0.983605	0.419860	0.367945	0.980709	0.181811	0.198365	1.049577	0.355847	0.195037	1.053815	0.283273	0.307482	1.077576	0.464749	0.303403	1.077299	0.155470	0.252050	0.503220	0.462717	0.237297	0.494535	0.359308	0.280694	0.868648	0.499171	0.322692	0.773451	0.486819	0.260537	0.691799	0.492137	0.174241	0.095674	0.479892	0.199981	0.102998	0.396352	0.249625	0.369448	0.403562	0.252452	0.307661	0.460963	0.229083	0.234405	0.415677	0.110345	0.040237	0.419893	0.325833	0.046106	0.414592	0.313632	0.041781	0.507733	0.246997	0.517743	0.156228	0.247608	0.502301	0.267130	0.298793	0.864172	0.127545	0.336875	0.768676	0.142708	0.271597	0.686735	0.127990	0.174124	0.099634	0.140782	0.204789	0.102964	0.222198	0.255177	0.369411	0.213776	0.246761	0.301797	0.158096	0.229403	0.234935	0.208680	0.106039	0.042003	0.198623	0.328279	0.044387	0.196538	0.308024	0.045859	0.109875	0.217720	1.520734	0.307112	0.178519	1.224358	0.309666	0.329264	1.444736	0.310959	0.394649	1.238665	0.311090	0.225703	1.503337	0.454067	0.240868	1.513606	0.166503	
